<?xml version="1.0" standalone="no"?><!DOCTYPE svg PUBLIC "-//W3C//DTD SVG 1.1//EN" "http://www.w3.org/Graphics/SVG/1.1/DTD/svg11.dtd"><svg t="1628562650700" class="icon" viewBox="0 0 1024 1024" version="1.1" xmlns="http://www.w3.org/2000/svg" p-id="1994" xmlns:xlink="http://www.w3.org/1999/xlink" width="200" height="200"><defs><style type="text/css"></style></defs><path d="M875.946667 184.533333A262.613333 262.613333 0 0 0 512 177.706667 262.4 262.4 0 0 0 148.053333 555.946667l341.333334 341.333333a31.786667 31.786667 0 0 0 22.613333 9.386667 31.786667 31.786667 0 0 0 22.613333-9.386667l341.333334-341.333333a262.826667 262.826667 0 0 0 0-371.413334z m-45.226667 326.186667L512 829.44 193.28 510.72a198.613333 198.613333 0 0 1 280.96-280.96l15.146667 15.146667a32.213333 32.213333 0 0 0 45.226666 0l15.146667-15.146667a198.613333 198.613333 0 0 1 280.96 280.96z" fill="#FA6401" p-id="1995"></path><path d="M416.213333 615.253333a32 32 0 0 1-29.653333-20.053333l-50.133333-124.8H134.613333a32 32 0 1 1 0-64h223.36a32.213333 32.213333 0 0 1 29.866667 20.266667l28.16 70.186666 66.346667-167.253333A31.573333 31.573333 0 0 1 512 309.333333a32.213333 32.213333 0 0 1 29.866667 18.133334l82.133333 170.666666H832a32 32 0 0 1 0 64H602.666667a32 32 0 0 1-28.8-18.133333l-59.093334-122.453333-68.693333 173.866666a32.213333 32.213333 0 0 1-29.866667 20.266667z" fill="#42D7B5" p-id="1996"></path><path d="M138.453333 406.4h-3.84a32 32 0 1 0 0 64h27.733334a193.28 193.28 0 0 1-23.893334-64zM779.733333 561.706667H832a32 32 0 0 0 9.173333-62.506667c-3.413333 3.84-6.613333 7.893333-10.453333 11.52z" fill="#435300" p-id="1997"></path></svg>