<?xml version="1.0" standalone="no"?><!DOCTYPE svg PUBLIC "-//W3C//DTD SVG 1.1//EN" "http://www.w3.org/Graphics/SVG/1.1/DTD/svg11.dtd"><svg t="1629686370793" class="icon" viewBox="0 0 1024 1024" version="1.1" xmlns="http://www.w3.org/2000/svg" p-id="2917" xmlns:xlink="http://www.w3.org/1999/xlink" width="200" height="200"><defs><style type="text/css"></style></defs><path d="M426.542817 0.599756h170.530695C710.527404-1.899228 833.477436 32.886635 911.045912 112.954095c80.167419 77.568476 114.853323 200.518508 112.454298 313.972399v170.530696c2.399025 113.453892-32.286878 236.403924-112.454298 313.972399-77.568476 80.167419-200.518508 114.853323-313.9724 112.454298H426.542817c-113.453892 2.399025-236.403924-32.286878-313.9724-112.454298C32.402998 833.961073-2.282906 711.011041 0.116119 597.557149V427.026454C-2.282906 313.472603 32.402998 190.52257 112.570417 112.954095 190.138893 32.886635 313.088925-1.899228 426.542817 0.599756z" fill="#FFA800" p-id="2918"></path><path d="M112.570417 112.954095C36.90117 186.224317 1.715469 299.878128 0.116119 407.834254c137.943939 0 249.79848-111.954501 249.798481-249.89844 0-42.782613-10.795613-83.066241-29.687935-118.251942-40.583507 17.892728-77.568476 42.182857-107.656248 73.270223z" fill="#FFFFFF" opacity=".5" p-id="2919"></path><path d="M792.993889 473.907401l-122.650154 96.16092c-9.895978 7.796831-13.994313 20.79155-10.295816 32.886634l45.381557 149.439267c8.296628 27.388869-22.190981 50.079647-45.881354 34.086147L530.800446 698.915956c-10.395775-7.097116-23.99025-6.897197-34.286066 0.299878l-127.348245 89.76352c-23.390494 16.493297-54.277941-5.797644-46.38115-33.286472L365.867476 605.45394c3.498578-12.095084-0.799675-25.089803-10.895572-32.686716l-124.149545-94.061773c-22.790738-17.193013-11.295409-53.678185 17.193013-54.677778l155.33687-5.297847c12.494922-0.399838 23.490453-8.596506 27.588787-20.491672l50.579445-147.839917c9.296222-27.088991 47.280785-27.388869 56.976844-0.499797l52.978469 146.940282c4.298253 11.795206 15.393744 19.791956 27.888666 19.991875l155.436829 2.698904c28.588382 0.499797 40.683466 36.685091 18.192607 54.3779z m-219.310871 104.957345c-3.1987-4.997969-8.596506-8.096709-14.494109-8.09671-6.497359 0-12.494922 3.698497-15.293785 9.396182-5.097928 10.495734-15.593663 17.093053-27.288909 17.093053-11.695247 0-22.190981-6.597319-27.28891-17.093053-2.798863-5.697684-8.796425-9.396181-15.293785-9.396182-5.997563 0-11.395369 2.998781-14.494109 8.09671-3.098741 4.997969-3.498578 11.19545-0.799675 16.493297 10.895572 22.290941 33.186513 36.085335 57.976438 36.085334 24.789925 0 47.080866-13.794394 57.976438-36.085334 2.498984-5.297847 2.099147-11.395369-0.999594-16.493297z" fill="#FFFFFF" p-id="2920"></path><path d="M670.343735 569.568524L787.396164 477.805817c-2.898822-0.099959-5.797644-0.199919-8.696466-0.199919-93.861854 0-169.930939 76.069085-169.930939 169.930939 0 59.575788 30.687528 111.954501 76.96872 142.342151 14.49411-4.79805 25.089803-20.391713 19.691997-37.884603l-45.381557-149.439267c-3.698497-12.095084 0.399838-25.189763 10.295816-32.986594z" fill="#FFA800" opacity=".5" p-id="2921"></path></svg>