<?xml version="1.0" standalone="no"?><!DOCTYPE svg PUBLIC "-//W3C//DTD SVG 1.1//EN" "http://www.w3.org/Graphics/SVG/1.1/DTD/svg11.dtd"><svg t="1629687542271" class="icon" viewBox="0 0 1024 1024" version="1.1" xmlns="http://www.w3.org/2000/svg" p-id="1297" xmlns:xlink="http://www.w3.org/1999/xlink" width="200" height="200"><defs><style type="text/css"></style></defs><path d="M809.1032 991.129607c-112.271338 0-204.656599-91.893742-204.656599-203.48924 0-111.636458 92.385262-203.468759 204.656599-203.468759v-0.04096c112.250858 0 204.656599 91.914222 204.656599 203.468759 0 111.636458-92.405742 203.530199-204.656599 203.5302z m104.837099-206.090199a21.258236 21.258236 0 0 0-21.176316-20.828156v0.04096a20.951036 20.951036 0 0 0-20.951035 20.869116v-24.391675a20.971516 20.971516 0 0 0-41.963512 0v-14.847997a20.971516 20.971516 0 0 0-41.922552 0v-61.685748c0-11.509758-9.379838-20.869116-20.991995-20.889596a20.951036 20.951036 0 0 0-20.971516 20.889596v149.21725l-24.760315-24.657915a21.872636 21.872636 0 0 0-30.781434 1.16736 21.544956 21.544956 0 0 0 0 29.429754l68.587506 68.239346a87.326703 87.326703 0 0 0 67.809267 32.194554c46.673911 0 84.807663-36.433913 86.999022-82.104304h0.12288v-72.642545z m-368.926646-3.973119c0 111.595498 72.622065 203.489239 165.068767 242.872271H175.267807C82.862065 1023.93856 10.24 958.300173 10.24 873.00099V150.917295C10.24 65.577152 82.862065-0.102195 175.267807-0.061235h528.199574c92.426222 0 165.048287 65.638387 165.048287 150.97853v374.149045c-19.783676-6.574079-39.628792-6.574079-59.412468-6.574079-145.244131 0-264.089547 118.169576-264.089547 262.574028z m-198.77884-72.007666h149.31965c14.213117 0 24.883195-16.977917 24.883195-39.587832 0-22.589435-10.670078-39.587832-24.883195-39.587832h-149.31965c-14.213117 0-24.883195 16.998397-24.883195 39.587832 0 22.609915 10.670078 39.587832 24.883195 39.587832z m9.482238-190.361562h287.682502c20.172796 0 35.307513-16.957437 35.307513-39.587832 0-22.609915-15.134717-39.587832-35.307513-39.587832H355.717051c-20.234236 0-35.348473 16.977917-35.348473 39.587832 0 22.630395 15.155197 39.587832 35.348473 39.587832z m-95.313901-273.797065a29.962234 29.962234 0 0 0-41.328632 0l-19.599356 19.599356a29.921274 29.921274 0 0 0-41.328632 0l-0.1024 0.1024a29.081594 29.081594 0 0 0 0.1024 41.267192l20.664316 20.869115 0.43008 0.43008a29.081594 29.081594 0 0 0 40.939512-0.43008l40.222712-40.304631 0.16384-0.16384a29.245434 29.245434 0 0 0-0.16384-41.369592z m0 197.93916a29.921274 29.921274 0 0 0-41.328632 0l-19.599356 19.599356a29.921274 29.921274 0 0 0-41.328632 0l-0.1024 0.1024a29.081594 29.081594 0 0 0 0.1024 41.267192l20.664316 20.869116 0.43008 0.43008a29.081594 29.081594 0 0 0 40.939512-0.43008l40.222712-40.304632 0.16384-0.16384a29.245434 29.245434 0 0 0-0.16384-41.369592z m0 197.939161a29.921274 29.921274 0 0 0-41.328632 0l-19.599356 19.599356a29.921274 29.921274 0 0 0-41.328632 0l-0.1024 0.1024a29.081594 29.081594 0 0 0 0.1024 41.267191l20.664316 20.848636a29.081594 29.081594 0 0 0 41.369592 0l40.222712-40.284152 0.16384-0.16384a29.245434 29.245434 0 0 0-0.16384-41.369591z m462.704547-398.172081H355.594171c-20.111356 0-35.225593 16.281597-35.225593 38.051833 0 21.688316 15.114237 37.990392 35.225593 37.990392h367.513526c20.152316 0 35.225593-16.261117 35.225593-38.031352 0-21.688316-15.073277-38.010872-35.225593-38.010873z" fill="#ff8198" p-id="1298"></path></svg>