<?xml version="1.0" standalone="no"?><!DOCTYPE svg PUBLIC "-//W3C//DTD SVG 1.1//EN" "http://www.w3.org/Graphics/SVG/1.1/DTD/svg11.dtd"><svg t="1629687810864" class="icon" viewBox="0 0 1024 1024" version="1.1" xmlns="http://www.w3.org/2000/svg" p-id="4389" xmlns:xlink="http://www.w3.org/1999/xlink" width="200" height="200"><defs><style type="text/css"></style></defs><path d="M164.601586 234.551828m-61.942554 61.942554a87.6 87.6 0 1 0 123.885108-123.885108 87.6 87.6 0 1 0-123.885108 123.885108Z" fill="#F9DB91" p-id="4390"></path><path d="M358.81 173.43m17 0l554.19 0q17 0 17 17l0 88.25q0 17-17 17l-554.19 0q-17 0-17-17l0-88.25q0-17 17-17Z" fill="#F9DB91" p-id="4391"></path><path d="M164.580021 512.008379m-85.257498 20.122598a87.6 87.6 0 1 0 170.514997-40.245196 87.6 87.6 0 1 0-170.514997 40.245196Z" fill="#AEF0FF" p-id="4392"></path><path d="M358.81 450.87m17 0l554.19 0q17 0 17 17l0 88.25q0 17-17 17l-554.19 0q-17 0-17-17l0-88.25q0-17 17-17Z" fill="#AEF0FF" p-id="4393"></path><path d="MNaN NaNmNaN NaNaNaN NaN NaN 1 0 NaN NaN NaN NaN NaN 1 0 NaN NaNZ" fill="#EF6A6A" p-id="4394"></path><path d="M358.81 728.32m17 0l554.19 0q17 0 17 17l0 88.25q0 17-17 17l-554.19 0q-17 0-17-17l0-88.25q0-17 17-17Z" fill="#EF6A6A" p-id="4395"></path><path d="M164.6 134a100.6 100.6 0 1 0 100.6 100.6A100.6 100.6 0 0 0 164.6 134z m0 175.2a74.6 74.6 0 1 1 74.6-74.6 74.68 74.68 0 0 1-74.6 74.55zM930 160.43H375.81a30.09 30.09 0 0 0-30 30v88.25a30.09 30.09 0 0 0 30 30H930a30.09 30.09 0 0 0 30-30v-88.25a30.09 30.09 0 0 0-30-30z m4 118.25a4.11 4.11 0 0 1-4 4H375.81a4.1 4.1 0 0 1-4-4v-88.25a4.1 4.1 0 0 1 4-4H930a4.11 4.11 0 0 1 4 4zM164.6 411.4A100.6 100.6 0 1 0 265.2 512a100.6 100.6 0 0 0-100.6-100.6z m0 175.2a74.6 74.6 0 1 1 74.6-74.6 74.68 74.68 0 0 1-74.6 74.6zM930 437.87H375.81a30.09 30.09 0 0 0-30 30v88.26a30.09 30.09 0 0 0 30 30H930a30.09 30.09 0 0 0 30-30v-88.26a30.09 30.09 0 0 0-30-30z m4 118.26a4.11 4.11 0 0 1-4 4H375.81a4.1 4.1 0 0 1-4-4v-88.26a4.1 4.1 0 0 1 4-4H930a4.11 4.11 0 0 1 4 4zM164.6 688.85a100.6 100.6 0 1 0 100.6 100.6 100.6 100.6 0 0 0-100.6-100.6z m0 175.2a74.6 74.6 0 1 1 74.6-74.6 74.69 74.69 0 0 1-74.6 74.6zM930 715.32H375.81a30.09 30.09 0 0 0-30 30v88.25a30.09 30.09 0 0 0 30 30H930a30.09 30.09 0 0 0 30-30v-88.25a30.09 30.09 0 0 0-30-30z m4 118.25a4.11 4.11 0 0 1-4 4H375.81a4.1 4.1 0 0 1-4-4v-88.25a4.1 4.1 0 0 1 4-4H930a4.11 4.11 0 0 1 4 4z" fill="#512C56" p-id="4396"></path></svg>