<?xml version="1.0" standalone="no"?><!DOCTYPE svg PUBLIC "-//W3C//DTD SVG 1.1//EN" "http://www.w3.org/Graphics/SVG/1.1/DTD/svg11.dtd"><svg t="1629688085331" class="icon" viewBox="0 0 1024 1024" version="1.1" xmlns="http://www.w3.org/2000/svg" p-id="7125" xmlns:xlink="http://www.w3.org/1999/xlink" width="200" height="200"><defs><style type="text/css"></style></defs><path d="M636.16 665.4464m-212.7872 0a212.7872 212.7872 0 1 0 425.5744 0 212.7872 212.7872 0 1 0-425.5744 0Z" fill="#ff8198" p-id="7126"></path><path d="M718.336 897.1776h-424.96c-88.832 0-161.0752-72.2432-161.0752-161.0752v-288.768c0-49.6128 22.3232-95.6928 61.2864-126.4128l212.48-167.7312c58.7776-46.3872 140.8512-46.3872 199.5776 0l212.48 167.7312c38.9632 30.72 61.2864 76.8 61.2864 126.4128v288.8192c0 88.7808-72.2432 161.024-161.0752 161.024zM505.856 169.6256c-24.0128 0-48.0256 7.8848-68.096 23.7056L225.28 361.0624c-26.5728 20.9408-41.7792 52.3776-41.7792 86.2208v288.8192c0 60.5696 49.3056 109.8752 109.8752 109.8752h424.96c60.5696 0 109.8752-49.3056 109.8752-109.8752v-288.768c0-33.8432-15.2576-65.28-41.7792-86.2208l-212.48-167.7312c-20.0704-15.872-44.0832-23.7568-68.096-23.7568z" fill="#ff8198" p-id="7127"></path><path d="M631.1424 726.4768H373.1456c-14.1312 0-25.6-11.4688-25.6-25.6s11.4688-25.6 25.6-25.6h257.9456c14.1312 0 25.6 11.4688 25.6 25.6s-11.4176 25.6-25.5488 25.6z" fill="#ff8198" p-id="7128"></path></svg>