<?xml version="1.0" standalone="no"?><!DOCTYPE svg PUBLIC "-//W3C//DTD SVG 1.1//EN" "http://www.w3.org/Graphics/SVG/1.1/DTD/svg11.dtd"><svg t="1629688071319" class="icon" viewBox="0 0 1024 1024" version="1.1" xmlns="http://www.w3.org/2000/svg" p-id="6193" xmlns:xlink="http://www.w3.org/1999/xlink" width="200" height="200"><defs><style type="text/css"></style></defs><path d="M524.6 156.6c-235.9 0-427.2 191.2-427.2 427.2S288.6 1011 524.6 1011s427.2-191.2 427.2-427.2-191.3-427.2-427.2-427.2z" fill="#ff8198" p-id="6194"></path><path d="M701.2 861.8c-3.4 0-6.9-1.4-9.4-4-5-5.2-4.8-13.5 0.4-18.4 19.8-18.9 37.8-39.9 53.6-62.4 5.8-8.3 11.4-16.9 16.5-25.6 3.7-6.2 11.7-8.2 17.9-4.5 6.2 3.7 8.2 11.7 4.5 17.9-5.5 9.2-11.4 18.4-17.5 27.1-16.7 23.9-35.8 46.1-56.9 66.3-2.6 2.4-5.8 3.6-9.1 3.6z m100.2-146.4c-1.7 0-3.3-0.3-5-1-6.7-2.8-9.9-10.4-7.1-17 4.6-11.2 8.8-22.8 12.4-34.5 2.1-6.9 9.4-10.7 16.3-8.6 6.9 2.1 10.7 9.4 8.6 16.3-3.9 12.3-8.3 24.6-13.2 36.6-2.1 5.2-6.9 8.2-12 8.2z" fill="#ff8198" p-id="6195"></path><path d="M709.4 105.6a2.5 13.1 0 1 0 5 0 2.5 13.1 0 1 0-5 0Z" fill="#ff8198" p-id="6196"></path><path d="M698.326635 109.679019a13.1 2.5 60 1 0 4.330127-2.5 13.1 2.5 60 1 0-4.330127 2.5Z" fill="#ff8198" p-id="6197"></path><path d="M690.863321 118.748135a13.1 2.5 30 1 0 2.5-4.330127 13.1 2.5 30 1 0-2.5 4.330127Z" fill="#ff8198" p-id="6198"></path><path d="M675.8 127.9a13.1 2.5 0 1 0 26.2 0 13.1 2.5 0 1 0-26.2 0Z" fill="#ff8198" p-id="6199"></path><path d="M680.36029 145.83949a2.5 13.1 60 1 0 22.689865-13.1 2.5 13.1 60 1 0-22.689865 13.1Z" fill="#ff8198" p-id="6200"></path><path d="M693.235297 159.113466a2.5 13.1 30 1 0 13.1-22.689865 2.5 13.1 30 1 0-13.1 22.689865Z" fill="#ff8198" p-id="6201"></path><path d="M708.6 151a2.5 13.1 0 1 0 5 0 2.5 13.1 0 1 0-5 0Z" fill="#ff8198" p-id="6202"></path><path d="M720.314528 149.375833a13.1 2.5 60 1 0 4.330127-2.5 13.1 2.5 60 1 0-4.330127 2.5Z" fill="#ff8198" p-id="6203"></path><path d="M729.683306 142.073547a13.1 2.5 30 1 0 2.5-4.330127 13.1 2.5 30 1 0-2.5 4.330127Z" fill="#ff8198" p-id="6204"></path><path d="M721.1 128.7a13.1 2.5 0 1 0 26.2 0 13.1 2.5 0 1 0-26.2 0Z" fill="#ff8198" p-id="6205"></path><path d="M720.038708 123.832947a2.5 13.1 60 1 0 22.689866-13.1 2.5 13.1 60 1 0-22.689866 13.1Z" fill="#ff8198" p-id="6206"></path><path d="M716.697311 120.256878a2.5 13.1 30 1 0 13.1-22.689866 2.5 13.1 30 1 0-13.1 22.689866Z" fill="#ff8198" p-id="6207"></path><path d="M795.5 28.2m-15.9 0a15.9 15.9 0 1 0 31.8 0 15.9 15.9 0 1 0-31.8 0Z" fill="#ff8198" p-id="6208"></path><path d="M561.9 93.8c-2.5 0-4.4-2-4.4-4.4V40.7c0-2.5 2-4.4 4.4-4.4 2.5 0 4.4 2 4.4 4.4v48.8c0.1 2.4-1.9 4.3-4.4 4.3z" fill="#ff8198" p-id="6209"></path><path d="M586.3 69.5h-48.8c-2.5 0-4.4-2-4.4-4.4 0-2.5 2-4.4 4.4-4.4h48.8c2.5 0 4.4 2 4.4 4.4 0 2.4-1.9 4.4-4.4 4.4z" fill="#ff8198" p-id="6210"></path><path d="M942.5 239.9c-6.1-2.6-12.6-1.1-14.6 3.3l-37.6 87.3c-1.9 4.5 1.5 10.2 7.6 12.9 6.1 2.6 12.6 1.1 14.6-3.3l37.6-87.3c1.9-4.5-1.5-10.2-7.6-12.9z" fill="#ff8198" p-id="6211"></path><path d="M868.4 269.3c-2.6 6.1-1.1 12.6 3.3 14.6l87.3 37.6c4.5 1.9 10.2-1.5 12.9-7.6 2.6-6.1 1.1-12.6-3.3-14.6l-87.3-37.6c-4.5-1.9-10.3 1.5-12.9 7.6z" fill="#ff8198" p-id="6212"></path><path d="M879.7 173.5c-22.3 0-40.5-18-40.5-40s18.2-40 40.5-40 40.5 18 40.5 40-18.2 40-40.5 40z m0-69.6c-16.4 0-29.8 13.2-29.8 29.4s13.4 29.4 29.8 29.4 29.8-13.2 29.8-29.4-13.4-29.4-29.8-29.4z" fill="#ff8198" p-id="6213"></path><path d="M468.3 1024c-59.4 0-117.1-11.6-171.4-34.6-52.4-22.2-99.5-53.9-139.9-94.3-40.4-40.4-72.1-87.5-94.3-139.9-23-54.4-34.7-112-34.7-171.5s11.6-117.1 34.6-171.3c22.2-52.5 53.9-99.5 94.3-139.9s87.5-72.1 139.9-94.3c54.3-23 111.9-34.6 171.4-34.6s117.1 11.6 171.4 34.6c52.4 22.2 99.5 53.9 139.9 94.3 40.4 40.4 72.1 87.5 94.3 139.9 23 54.3 34.6 111.9 34.6 171.4s-11.6 117.1-34.6 171.4c-22.2 52.4-53.9 99.5-94.3 139.9-40.4 40.4-87.5 72.1-139.9 94.3-54.2 23-111.9 34.6-171.3 34.6z m0-854.4c-228.4 0-414.2 185.8-414.2 414.1s185.8 414.1 414.1 414.1S882.3 812 882.3 583.7c0.1-228.3-185.7-414.1-414-414.1z" fill="#ff8198" p-id="6214"></path><path d="M561.9 443.4c0 25.9 21 46.9 46.9 46.9s46.9-21 46.9-46.9-21-46.9-46.9-46.9-46.9 21-46.9 46.9z" fill="#ff8198" p-id="6215"></path><path d="M608.9 503.4c-33.1 0-60-26.9-60-60s26.9-60 60-60 60 26.9 60 60c-0.1 33.1-27 60-60 60z m0-93.8c-18.7 0-33.9 15.2-33.9 33.9s15.2 33.9 33.9 33.9 33.9-15.2 33.9-33.9c-0.1-18.8-15.3-33.9-33.9-33.9z" fill="#ff8198" p-id="6216"></path><path d="M280.8 443.4c0 25.9 21 46.9 46.9 46.9s46.9-21 46.9-46.9-21-46.9-46.9-46.9-46.9 21-46.9 46.9z" fill="#ff8198" p-id="6217"></path><path d="M327.7 503.4c-33.1 0-60-26.9-60-60s26.9-60 60-60 60 26.9 60 60-27 60-60 60z m0-93.8c-18.7 0-33.9 15.2-33.9 33.9s15.2 33.9 33.9 33.9 33.9-15.2 33.9-33.9c0-18.8-15.2-33.9-33.9-33.9z" fill="#ff8198" p-id="6218"></path><path d="M468.3 771c90.5 0 166-64.3 183.4-149.6 4-19.4-10.9-37.6-30.7-37.6H315.6c-19.8 0-34.7 18.2-30.7 37.6C302.2 706.8 377.8 771 468.3 771z" fill="#ff8198" p-id="6219"></path><path d="M468.3 784.1c-23.7 0-46.9-4.1-68.9-12.2-21.3-7.8-41-19.1-58.6-33.6-35.3-29.1-59.7-69.7-68.7-114.3-2.7-13.1 0.7-26.6 9.1-36.9 8.5-10.4 21-16.3 34.4-16.3H621c13.4 0 25.9 6 34.4 16.3s11.8 23.8 9.1 36.9c-9.1 44.6-33.5 85.1-68.8 114.3-17.5 14.5-37.3 25.8-58.6 33.6-22 8.1-45.2 12.2-68.8 12.2zM315.6 596.9c-5.5 0-10.7 2.5-14.1 6.7-3.5 4.3-4.9 9.8-3.8 15.2C314.1 699.5 385.8 758 468.3 758c82.4 0 154.2-58.5 170.6-139.2 1.1-5.4-0.3-10.9-3.8-15.2s-8.7-6.7-14.2-6.7H315.6z" fill="#ff8198" p-id="6220"></path></svg>